Coordinates
version=1
nRows=15
nColumns=19
inDegrees=yes

Units are S.I. units (second, meters, Newtons, ...)
If the header above contains a line with 'inDegrees', this indicates whether rotational values are in degrees (yes) or radians (no).

endheader
time	pelvis_tilt	pelvis_list	pelvis_rotation	pelvis_tx	pelvis_ty	pelvis_tz	hip_flexion_r	hip_adduction_r	hip_rotation_r	knee_angle_r	knee_angle_r_beta	ankle_angle_r	hip_flexion_l	hip_adduction_l	hip_rotation_l	knee_angle_l	knee_angle_l_beta	ankle_angle_l
     11.04000000	     -5.83314058	     -3.13682884	     -4.95040708	      2.18525027	      1.07105380	      1.06996499	     22.74727526	      6.99602664	     -3.44329464	      8.95037968	      0.15621359	     -0.38534425	    -10.56284693	     -9.94345185	    -16.16813595	     43.50334410	      0.75927659	    -15.52018056
     11.04666667	     -5.23104166	     -3.56863668	     -5.14665278	      2.18554904	      1.06754455	      1.07100358	     22.68525999	      7.40965506	     -4.38348230	     11.14810231	      0.19457109	      0.20485810	    -10.68770835	    -10.74491584	    -16.01557050	     45.90076912	      0.80111955	    -14.65982545
     11.05333333	     -4.66161075	     -3.95442916	     -5.40601396	      2.18543684	      1.06364433	      1.07201793	     22.82889226	      7.73366511	     -5.31546070	     13.85752996	      0.24185952	      0.94422210	    -10.65761779	    -11.50205862	    -15.88247736	     48.44152986	      0.84546419	    -13.85181368
     11.06000000	     -3.67449117	     -4.57139139	     -5.70042662	      2.18523964	      1.05998758	      1.07288843	     22.45017801	      8.23353952	     -6.11700658	     16.63845238	      0.29039578	      1.81757766	    -11.09470752	    -12.42261183	    -15.82386404	     50.94982598	      0.88924222	    -13.05639765
     11.06666667	     -3.50204948	     -4.63818910	     -6.03226140	      2.18438501	      1.05494218	      1.07370725	     23.37194061	      8.11698056	     -6.95574021	     20.28383429	      0.35401969	      3.05212127	    -10.32481102	    -12.77347485	    -15.36527675	     53.71286561	      0.93746636	    -12.41954635
     11.07333333	     -2.53209695	     -5.23521930	     -6.37338735	      2.18369249	      1.05076928	      1.07429614	     23.07881841	      8.50102707	     -7.51526269	     23.44132896	      0.40912837	      4.35925896	    -10.55085635	    -13.59892311	    -15.19558791	     56.34340669	      0.98337796	    -11.76567926
     11.08000000	     -1.69536248	     -5.75062689	     -6.73109105	      2.18274267	      1.04634532	      1.07472850	     22.93895783	      8.79312456	     -7.84517891	     26.68755379	      0.46578568	      5.85394571	    -10.51657661	    -14.24080586	    -14.81902619	     58.98297774	      1.02944716	    -11.18370158
     11.08666667	     -1.92743514	     -5.47660328	     -7.10755938	      2.18110109	      1.04052537	      1.07508495	     24.19051865	      8.33260462	     -7.95078898	     30.28313243	      0.52854037	      7.50218966	     -8.88361840	    -14.05343150	    -13.90870648	     61.87663719	      1.07995105	    -10.51234142
     11.09333333	     -1.23379474	     -5.97838384	     -7.48506849	      2.17975757	      1.03603025	      1.07530481	     23.96488986	      8.65309094	     -7.91182782	     33.13978052	      0.57839828	      9.21851444	     -8.50295547	    -14.60407702	    -13.41766363	     64.51864576	      1.12606280	     -9.82633910
     11.10000000	     -1.33397359	     -6.04160904	     -7.82021456	      2.17799318	      1.03080508	      1.07534104	     24.60763071	      8.60554665	     -7.68679682	     35.93600958	      0.62720169	     10.97209327	     -6.92961927	    -14.68262773	    -12.51070463	     67.28882906	      1.17441162	     -9.16486724
     11.10666667	     -1.27869459	     -6.32746807	     -8.15356009	      2.17627962	      1.02611120	      1.07532155	     24.81139917	      8.81328109	     -7.38790837	     38.27855989	      0.66808690	     12.73130242	     -5.55252541	    -14.95865940	    -11.68970635	     69.91636078	      1.22027070	     -8.42786844
     11.11333333	     -1.45587931	     -6.55545217	     -8.41995027	      2.17442128	      1.02155029	      1.07521815	     25.10710010	      8.98117668	     -7.10384596	     40.30947694	      0.70353309	     14.43033615	     -3.78651800	    -15.17549120	    -10.73105777	     72.47897559	      1.26499676	     -7.72099012
     11.12000000	     -1.46043536	     -6.92373939	     -8.60306916	      2.17266880	      1.01776966	      1.07491882	     24.92979478	      9.26973504	     -6.83548012	     41.84489050	      0.73033111	     16.11130758	     -2.20734258	    -15.47997646	     -9.76510228	     74.83988385	      1.30620239	     -6.85057014
     11.12666667	     -2.03457444	     -7.05379061	     -8.71833226	      2.17084621	      1.01378915	      1.07459020	     25.28792364	      9.34038314	     -6.67019958	     43.20116177	      0.75400251	     17.62610012	      0.18413654	    -15.56376447	     -8.59295320	     77.13671184	      1.34628960	     -6.13607623
     11.13333333	     -2.52293011	     -7.23365517	     -8.69307232	      2.16910847	      1.01053232	      1.07412289	     25.32703776	      9.41496387	     -6.60937379	     44.14255388	      0.77043291	     19.01333763	      2.53110039	    -15.67064947	     -7.36293914	     79.21648831	      1.38258854	     -5.38002755
